<svg width="24" height="24" viewBox="0 0 24 24" fill="none" xmlns="http://www.w3.org/2000/svg">
<path d="M22.449 12.203c0-.63-.053-1.24-.16-1.84H12v3.48H17.84a4.131 4.131 0 01-1.791 2.716l.001.001 2.943 2.275c.018.014.03.028.049.043 1.815-1.688 2.862-4.14 2.862-7.175z" fill="#4285F4"/>
<path d="M12 23c3.221 0 5.92-1.066 7.893-2.884l-2.943-2.275c-.019-.015-.031-.029-.049-.043-1.071.716-2.483 1.14-4.898 1.14-3.765 0-6.945-2.52-8.093-5.918L.96 17.51a11.972 11.972 0 0011.04 5.49z" fill="#34A853"/>
<path d="M3.907 14.512a7.07 7.07 0 010-5.024L.96 6.49A11.956 11.956 0 000 12c0 1.916.452 3.733 1.258 5.376l2.649-2.864z" fill="#FBBC05"/>
<path d="M12 4.17c1.77 0 3.348.61 4.593 1.764L19.46 2.65C17.5 1.056 14.801 0 12 0 8.779 0 6.08 1.066 4.107 2.884l2.943 2.275c.019.015.031.029.049.043C8.517 4.706 9.929 4.17 12 4.17z" fill="#EA4335"/>
</svg>
